<svg xmlns="http://www.w3.org/2000/svg" viewBox="0 0 51 50.5"><defs><style>.cls-1{fill:#36007e;}.cls-2{fill:#9702d0;}.cls-3{fill:#ae0ae8;}.cls-4{fill:#cd35fd;}.cls-5{fill:#fff;}</style></defs><g id="Fondo"><rect class="cls-1" x="0.5" width="50" height="50"/></g><g id="_50x50" data-name="50x50"><g id="Logo"><path class="cls-2" d="M45.33,14.58l.17.24L42,17.24a20.91,20.91,0,0,0-2.21-2.66Z"/><path class="cls-3" d="M45.33,14.58H39.79a16.61,16.61,0,0,0-6.62-4.21l-1.67-5A23.1,23.1,0,0,1,45.33,14.58Z"/><path class="cls-2" d="M41.24,20.47l-3.63,2.19a13.1,13.1,0,0,0-4-4.47L35,14.58l.83-.05A16.46,16.46,0,0,1,41.24,20.47Z"/><path class="cls-2" d="M38,26.25,34.35,28.5a7.89,7.89,0,0,0-2.68-2.72l1.56-4A14.63,14.63,0,0,1,38,26.25Z"/><path class="cls-3" d="M35.8,14.53l-.83.05-.24-.7A7,7,0,0,1,35.8,14.53Z"/><path class="cls-4" d="M34.73,13.88l.24.7-18.37,0,.29-.69S25.77,8.68,34.73,13.88Z"/><path class="cls-3" d="M35,14.58l-1.35,3.61A14,14,0,0,0,18,18.26L16.6,14.61Z"/><polygon class="cls-2" points="34.23 28.91 26.25 34.34 29.78 28.91 34.23 28.91"/><path class="cls-3" d="M33.23,21.74l-1.56,4c-6.16-3.62-10.86.14-10.86.14l-1.57-4.06C27.09,17.62,33.23,21.74,33.23,21.74Z"/><path class="cls-4" d="M31.5,5.39l1.67,5a19.92,19.92,0,0,0-15,.1l1.67-5A25.08,25.08,0,0,1,31.5,5.39Z"/><polygon class="cls-3" points="29.78 28.91 26.25 34.34 22.75 28.91 29.78 28.91"/><polygon class="cls-4" points="22.75 28.91 26.25 34.34 18.29 28.91 22.75 28.91"/><path class="cls-4" d="M19.24,21.86l1.57,4.06a10.4,10.4,0,0,0-2.58,2.68l-3.64-2.3A13.12,13.12,0,0,1,19.24,21.86Z"/><path class="cls-5" d="M19.86,5.45l-1.67,5a18.84,18.84,0,0,0-6.33,4.19H6.37A23.51,23.51,0,0,1,19.86,5.45Z"/><path class="cls-4" d="M16.6,14.61,18,18.26a11.87,11.87,0,0,0-3.84,4.33l-3.77-1.92a16.44,16.44,0,0,1,5.31-6Z"/><path class="cls-5" d="M16.89,13.92l-.29.69-.87.05S16.65,14,16.89,13.92Z"/><path class="cls-4" d="M6.37,14.66h5.49A17.69,17.69,0,0,0,10,17L6.17,15Z"/></g><g id="Letras"><path class="cls-5" d="M19.28,41.35h.89a2.82,2.82,0,0,1-.9,1.15,2.78,2.78,0,0,1-1.74.6,2.69,2.69,0,0,1-.4,0,2.9,2.9,0,0,1-1.07-.37,2.82,2.82,0,0,1-.84-.74,2.92,2.92,0,0,1-.2-3.2,2.84,2.84,0,0,1,.74-.84,2.9,2.9,0,0,1,1.39-.58,3,3,0,0,1,1.47.2,2.82,2.82,0,0,1,1.19.92l-1,.75a1.62,1.62,0,0,0-1.1-.62A1.64,1.64,0,0,0,15.89,40a1.58,1.58,0,0,0,.32,1.21,1.55,1.55,0,0,0,.87.59v.47h0l.22,0h.21a2,2,0,0,0,1-.25A2.07,2.07,0,0,0,19.28,41.35Zm-1.77.17a1.38,1.38,0,0,0,.64-.16,1.41,1.41,0,0,0,.47-.44h-1l.45-1.14h1.84v1.13h-.86a1.6,1.6,0,0,1-.35.51,1.65,1.65,0,0,1-1.19.48h-.23v-.39h.22Z"/><path class="cls-5" d="M22.94,43v-4.3l2.28,2.61v.5L24,40.45V43Zm6.43-5.75V43l-1.08-.53V40.24l-2,2.26-.8-.92v-.51l-2.27-2.6V37.22l3.07,3.52Z"/><path class="cls-5" d="M36.87,41.88l.29.63L36,43l-.18-.39H33.6l-.18.39H32.05L33,41h1.37l-.41.9Zm-2.15-1.7-.27.57H33.08l1.64-3.55,2.05,4.45H34.3l.12-.28h.85Z"/></g></g></svg>